/vscmnt/brussel_pixiu_data/_data_brussel/112/vsc11236/PredSimResults/SUBJ04opt3D/weighted-trackIG/worker_03.mot
version=1
nRows=6
nColumns=50
inDegrees=yes
endheader
                time	         pelvis_tilt	         pelvis_list	     pelvis_rotation	           pelvis_tx	           pelvis_ty	           pelvis_tz	       hip_flexion_r	     hip_adduction_r	      hip_rotation_r	        knee_angle_r	       ankle_angle_r	         mtp_angle_r	       hip_flexion_l	     hip_adduction_l	      hip_rotation_l	        knee_angle_l	       ankle_angle_l	         mtp_angle_l	    lumbar_extension	      lumbar_bending	     lumbar_rotation	 ercspn_r/activation	 intobl_r/activation	 extobl_r/activation	    abd_r/activation	    add_r/activation	hamstrings_r/activation	bifemsh_r/activation	glut_max_r/activation	iliopsoas_r/activation	rect_fem_r/activation	  vasti_r/activation	gastroc_r/activation	 soleus_r/activation	tib_ant_r/activation	 ercspn_l/activation	 intobl_l/activation	 extobl_l/activation	    abd_l/activation	    add_l/activation	hamstrings_l/activation	bifemsh_l/activation	glut_max_l/activation	iliopsoas_l/activation	rect_fem_l/activation	  vasti_l/activation	gastroc_l/activation	 soleus_l/activation	tib_ant_l/activation	
          2.06598531	         -1.56856087	         -0.28566615	         -8.56629705	          1.75608752	          0.88442917	          0.01118224	        -11.87838672	         -0.21104069	         -7.22098619	         -6.84692066	         14.15289215	         17.60401810	         28.19616790	         -2.90681172	         -9.62368528	        -10.43187842	          3.98617010	          0.23000312	        -14.05685449	          4.29477711	          7.75112203	          0.00999999	          0.00999999	          0.00999999	          0.07897241	          0.00999999	          0.02962022	          0.29124242	          0.02003564	          0.01858842	          0.00999999	          0.00999999	          0.26320375	          0.24370441	          0.01321106	          0.04551047	          0.23391349	          0.02185946	          0.00999999	          0.25478385	          0.06573539	          0.01971634	          0.01691507	          0.18935803	          0.04205229	          0.05020748	          0.00999999	          0.00999999	          0.33779197	
          2.07975855	         -1.67968977	         -0.27588262	         -8.33634868	          1.77120706	          0.88198841	          0.01079013	        -12.55890551	         -0.31765451	         -7.88622472	         -7.33316553	         14.06181917	         18.96903596	         28.21107741	         -2.74293742	         -9.83615830	        -11.80289289	          3.81060531	          0.22730917	        -13.54288914	          3.65075116	          7.81062348	          0.02710096	          0.00999999	          0.00999999	          0.06422850	          0.00999999	          0.02409022	          0.24833746	          0.01629505	          0.01511802	          0.00999999	          0.00999999	          0.25792248	          0.25232425	          0.01074460	          0.03701381	          0.22668035	          0.01777836	          0.00999999	          0.31198194	          0.06742049	          0.01603537	          0.01375708	          0.15400547	          0.03420126	          0.04083390	          0.01511801	          0.01858841	          0.33115144	
          2.09353178	         -1.77429423	         -0.20800832	         -8.06524266	          1.78679056	          0.87966802	          0.01035059	        -13.20283543	         -0.48974570	         -8.59267775	         -7.96465846	         13.88598593	         20.41554944	         28.10747892	         -2.56765433	         -9.90068623	        -13.20051699	          3.57919194	          0.22110409	        -12.98526566	          2.91525758	          7.84759304	          0.02741588	          0.00999999	          0.00999999	          0.05223724	          0.00999999	          0.03174467	          0.20197362	          0.01325281	          0.01229553	          0.00999999	          0.00999999	          0.23436730	          0.25215186	          0.00999999	          0.03010344	          0.22030394	          0.01445920	          0.01434074	          0.25373587	          0.07210239	          0.01304161	          0.03269871	          0.12525312	          0.02781599	          0.03951823	          0.01229553	          0.01511801	          0.35308410	
          2.10730502	         -1.85373637	         -0.07658866	         -7.74312052	          1.80263712	          0.87764760	          0.00979905	        -13.74919879	         -0.73986734	         -9.35061674	         -8.82340780	         13.60197900	         21.93053731	         27.94264379	         -2.34441434	        -10.05722297	        -14.47705971	          3.17838979	          0.20775487	        -12.41154879	          2.08976293	          7.85178290	          0.02842235	          0.00999999	          0.00999999	          0.04248471	          0.00999999	          0.04072555	          0.16426577	          0.01078113	          0.00999999	          0.00999999	          0.00999999	          0.19061165	          0.24273069	          0.00999999	          0.02448322	          0.17917387	          0.01175971	          0.02218486	          0.21705778	          0.07829168	          0.01060680	          0.02659396	          0.10186875	          0.02262283	          0.10834657	          0.00999999	          0.01229553	          0.38086496	
          2.12107825	         -1.91854782	          0.10720454	         -7.37690285	          1.81862337	          0.87610977	          0.00912023	        -14.14734915	         -1.06851456	        -10.15108337	         -9.98181832	         13.16564739	         23.50650551	         27.70677185	         -2.08127828	        -10.35175083	        -15.64991285	          2.82515755	          0.18670687	        -11.84196729	          1.19345270	          7.82260251	          0.04306057	          0.00999999	          0.00999999	          0.03455294	          0.00999999	          0.03528100	          0.13359786	          0.01075938	          0.00999999	          0.00999999	          0.00999999	          0.15502504	          0.22546539	          0.00999999	          0.02323432	          0.14572267	          0.00999999	          0.04417345	          0.18915186	          0.07842805	          0.01000002	          0.02162895	          0.08285017	          0.01839922	          0.17990890	          0.00999999	          0.00999999	          0.39666212	
          2.13485149	         -1.96950203	          0.33543078	         -6.97868003	          1.83463132	          0.87525348	          0.00830111	        -14.34094705	         -1.48435704	        -10.98313458	        -11.51554232	         12.51139432	         25.15375534	         27.35781784	         -1.77187880	        -10.74284144	        -16.67594955	          2.68294831	          0.16385616	        -11.29236375	          0.24463586	          7.76133898	          0.07049771	          0.00999999	          0.00999999	          0.02810202	          0.00999999	          0.04961525	          0.10865555	          0.01583457	          0.00999999	          0.00999999	          0.00999999	          0.12608235	          0.18429831	          0.00999999	          0.02939891	          0.11851669	          0.00999999	          0.07350336	          0.16514573	          0.07743663	          0.00999999	          0.02536507	          0.06738230	          0.01496414	          0.22166379	          0.00999999	          0.00999999	          0.39795428	
